<?xml version="1.0" encoding="utf-8"?>
<!-- Generator: Adobe Illustrator 16.0.0, SVG Export Plug-In . SVG Version: 6.00 Build 0)  -->
<!DOCTYPE svg PUBLIC "-//W3C//DTD SVG 1.1//EN" "http://www.w3.org/Graphics/SVG/1.1/DTD/svg11.dtd">
<svg version="1.1" id="图层_1" xmlns="http://www.w3.org/2000/svg" xmlns:xlink="http://www.w3.org/1999/xlink" x="0px" y="0px"
	 width="541.428px" height="92.254px" viewBox="0 0 541.428 92.254" enable-background="new 0 0 541.428 92.254"
	 xml:space="preserve">
<g>
	<path fill="#00A0E9" d="M34.026,46.955H22.65l-5.481,27.304H0L14.79,0.621h26.787c11.894,0,20.375,7.653,20.375,20.478
		C61.951,33.819,52.436,46.955,34.026,46.955z M38.577,15.824h-9.618l-3.207,15.927h8.998c7.757,0,9.929-6.412,9.929-9.101
		C44.679,18.823,43.024,15.824,38.577,15.824z"/>
	<path fill="#00A0E9" d="M114.284,74.258H97.116l5.999-29.683H84.808L78.81,74.258H61.641l14.79-73.638h17.168l-5.688,28.751h18.306
		l5.688-28.751h17.168L114.284,74.258z"/>
	<path fill="#00A0E9" d="M162.48,46.955h-11.376l-5.481,27.304h-17.168l14.79-73.638h26.787c11.894,0,20.375,7.653,20.375,20.478
		C190.405,33.819,180.89,46.955,162.48,46.955z M167.031,15.824h-9.618l-3.207,15.927h8.998c7.757,0,9.929-6.412,9.929-9.101
		C173.133,18.823,171.479,15.824,167.031,15.824z"/>
	<path fill="#00A0E9" d="M248.427,37.439c-2.585,12.825-4.551,22.133-11.376,28.958c-5.792,5.792-14.066,8.481-20.892,8.481
		c-15.204,0-23.167-10.446-23.167-21.512c0-3.31,0.724-8.791,2.172-15.927c2.585-12.825,4.551-22.133,11.376-28.959
		C212.332,2.689,220.606,0,227.432,0c15.204,0,23.167,10.446,23.167,21.512C250.599,24.822,249.875,30.303,248.427,37.439z
		 M225.984,15.1c-2.896,0-5.585,1.448-7.447,3.517c-2.275,2.482-3.62,6.309-6.205,18.823c-0.828,4.24-1.965,10.652-1.965,14.479
		c0,5.068,3.103,7.86,7.24,7.86c2.896,0,5.585-1.448,7.447-3.516c2.275-2.482,3.62-6.309,6.205-18.823
		c0.828-4.241,1.965-10.653,1.965-14.479C233.224,17.892,230.121,15.1,225.984,15.1z"/>
	<path fill="#00A0E9" d="M303.138,46.437c-2.481,12.411-4.551,19.237-8.481,23.167c-4.24,4.241-8.997,5.275-13.755,5.275
		c-4.964,0-9.204-1.758-11.894-5.068l-4.447,22.443h-16.135l14.688-73.638h15.513l-0.931,4.654c3-3.31,7.447-5.274,12.721-5.274
		C302,17.996,305,26.89,305,32.372C305,34.854,304.896,37.543,303.138,46.437z M283.28,32.579c-5.999,0-7.757,4.447-9.618,13.858
		c-0.518,2.586-1.138,6.309-1.138,8.377c0,1.655,0.206,5.481,4.86,5.481c5.999,0,7.758-4.447,9.619-13.859
		c0.517-2.585,1.137-6.309,1.137-8.377C288.141,36.405,287.935,32.579,283.28,32.579z"/>
	<path fill="#00A0E9" d="M357.745,51.608h-32.062c-0.104,1.034-0.207,1.551-0.207,2.275c0,4.447,2.689,7.446,8.171,7.446
		c4.654,0,8.48-1.861,11.894-5.171l8.067,10.549c-5.585,5.378-13.756,8.17-21.926,8.17c-8.998,0-21.513-4.137-21.513-19.754
		c0-19.754,9.825-37.129,28.648-37.129c11.791,0,20.789,7.446,20.789,20.271C359.607,42.507,358.779,47.265,357.745,51.608z
		 M337.888,31.234c-4.24,0-8.066,2.585-10.136,9.722h16.238c0.207-0.827,0.31-2.068,0.31-2.689
		C344.3,34.026,342.128,31.234,337.888,31.234z"/>
	<path fill="#00A0E9" d="M415.249,39.715l-6.93,34.543h-16.134l6.723-33.613c0.207-0.931,0.311-1.965,0.311-2.792
		c0-3.723-2.586-5.274-4.654-5.274c-3.724,0-7.344,1.861-8.584,8.067l-6.723,33.613h-16.135l11.066-55.642h15.41l-0.931,4.861
		c3.517-3.517,8.791-5.481,13.652-5.481c5.481,0,13.651,3.723,13.651,15.307C415.973,35.578,415.663,37.853,415.249,39.715z"/>
	<path fill="#00A0E9" d="M464.375,19.754c-2.482-3.723-4.964-4.654-7.55-4.654c-3.206,0-5.378,1.138-7.137,3.103
		c-2.481,2.792-3.826,6.205-6.516,19.237c-0.827,4.24-1.965,10.652-1.965,14.479c0,4.241,1.861,7.86,7.446,7.86
		c4.551,0,7.447-2.585,9.102-4.654l9.825,12.101c-4.033,3.93-10.445,7.653-19.547,7.653c-16.755,0-24.201-11.066-24.201-21.719
		c0-4.033,0.827-9.205,2.172-15.72c3.206-16.341,4.964-22.857,11.066-28.959C443.276,2.275,451.24,0,458.479,0
		c10.239,0,15.411,4.55,18.72,8.894L464.375,19.754z"/>
	<path fill="#00A0E9" d="M503.885,74.258h-13.342l-8.377-73.638h16.961l3.931,42.3l20.063-42.3h18.307L503.885,74.258z"/>
</g>
<g>
</g>
<g>
</g>
<g>
</g>
<g>
</g>
<g>
</g>
<g>
</g>
</svg>
